<?xml version="1.0" encoding="UTF-8"?>
<svg version="1.1" xmlns="http://www.w3.org/2000/svg" width="40" height="40">
<path d="M0 0 C0.85980469 0.03351562 1.71960938 0.06703125 2.60546875 0.1015625 C4.8125 0.375 4.8125 0.375 6.8125 1.375 C7.905625 1.271875 8.99875 1.16875 10.125 1.0625 C13.8125 1.375 13.8125 1.375 15.3828125 2.70703125 C16.60681502 4.20031432 17.71863326 5.7839211 18.8125 7.375 C19.51375 6.385 20.215 5.395 20.9375 4.375 C23.14209535 1.68400395 23.45668661 1.41528076 27.125 1 C28.011875 1.12375 28.89875 1.2475 29.8125 1.375 C28.25548069 6.04605792 25.72802627 9.46205685 22.8125 13.375 C23.3178125 14.00148438 23.823125 14.62796875 24.34375 15.2734375 C25.31828125 16.49933594 25.31828125 16.49933594 26.3125 17.75 C26.9621875 18.56210937 27.611875 19.37421875 28.28125 20.2109375 C29.8125 22.375 29.8125 22.375 29.8125 24.375 C27.125 24.75 27.125 24.75 23.8125 24.375 C21.74851924 22.551017 20.42208947 20.64736161 18.8125 18.375 C18.1525 19.365 17.4925 20.355 16.8125 21.375 C15.14462318 23.42150403 14.3659712 24.27824658 11.734375 24.73828125 C9.75724623 24.69205342 7.78333779 24.53923648 5.8125 24.375 C5.4825 24.705 5.1525 25.035 4.8125 25.375 C2.703125 25.6484375 2.703125 25.6484375 0.0625 25.75 C-0.79859375 25.79898438 -1.6596875 25.84796875 -2.546875 25.8984375 C-6.43951666 25.12681918 -7.82994814 23.51562562 -10.1875 20.375 C-10.8515625 16.78125 -10.8515625 16.78125 -10.8125 12.875 C-10.82539063 11.5859375 -10.83828125 10.296875 -10.8515625 8.96875 C-9.71124981 2.79764603 -6.31982338 -0.36331814 0 0 Z M-5.1875 7.375 C-5.1875 8.695 -5.1875 10.015 -5.1875 11.375 C-1.8875 11.375 1.4125 11.375 4.8125 11.375 C4.43345792 8.08424004 4.43345792 8.08424004 2.8125 5.375 C-1.68635769 4.90777305 -1.68635769 4.90777305 -5.1875 7.375 Z M9.8125 6.375 C9.8125 9.345 9.8125 12.315 9.8125 15.375 C4.8625 15.375 -0.0875 15.375 -5.1875 15.375 C-4.61624646 19.11775212 -4.61624646 19.11775212 -3.1875 20.375 C-0.22932893 20.62505386 -0.22932893 20.62505386 2.8125 20.375 C3.4725 19.715 4.1325 19.055 4.8125 18.375 C7.4375 17.75 7.4375 17.75 9.8125 17.375 C10.1425 18.035 10.4725 18.695 10.8125 19.375 C12.4625 17.065 14.1125 14.755 15.8125 12.375 C14.17080472 10.35445196 12.50338222 8.35456942 10.8125 6.375 C10.4825 6.375 10.1525 6.375 9.8125 6.375 Z " fill="#667896" transform="translate(10.1875,7.625)"/>
<path d="M0 0 C3.1875 -0.375 3.1875 -0.375 7 0 C9.1403498 1.81188028 10.38988302 3.65801167 12 6 C12.70125 5.01 13.4025 4.02 14.125 3 C16.32959535 0.30900395 16.64418661 0.04028076 20.3125 -0.375 C21.199375 -0.25125 22.08625 -0.1275 23 0 C21.44298069 4.67105792 18.91552627 8.08705685 16 12 C16.5053125 12.62648438 17.010625 13.25296875 17.53125 13.8984375 C18.1809375 14.71570312 18.830625 15.53296875 19.5 16.375 C20.47453125 17.59316406 20.47453125 17.59316406 21.46875 18.8359375 C23 21 23 21 23 23 C21.02 23 19.04 23 17 23 C15.68 20.36 14.36 17.72 13 15 C9.85650159 16.0478328 9.26748815 16.57913668 7.3125 19.0625 C6.1678125 20.5165625 6.1678125 20.5165625 5 22 C4.34 21.67 3.68 21.34 3 21 C3.44472656 20.46890625 3.88945312 19.9378125 4.34765625 19.390625 C4.91355469 18.68421875 5.47945312 17.9778125 6.0625 17.25 C6.63097656 16.55390625 7.19945312 15.8578125 7.78515625 15.140625 C9.20663371 13.10220313 9.20663371 13.10220313 8.83203125 10.890625 C7.54674248 7.97006272 5.29053431 6.18146125 3 4 C1.97186389 2.68824014 0.95915568 1.3630107 0 0 Z " fill="#6C7E95" transform="translate(17,9)"/>
<path d="M0 0 C2.69990662 1.79993774 4.5418865 3.083773 6 6 C6 8.31 6 10.62 6 13 C0.72 13 -4.56 13 -10 13 C-8.34922098 16.75170424 -8.34922098 16.75170424 -6 20 C-1.92720311 19.61577388 1.46574118 19.12055529 5 17 C3.63016497 20.16115776 3.0109362 20.9927092 0 23 C-3.85833276 23.50326079 -5.50857943 23.31669325 -8.8125 21.1875 C-11.93943395 18.06056605 -12.1895555 15.38276232 -12.3125 11.125 C-12.28552211 7.42902915 -12.11441406 6.1868763 -10.125 2.9375 C-6.72981293 -0.15811174 -4.56438332 -0.44748856 0 0 Z M-8 6 C-8 7.32 -8 8.64 -8 10 C-4.7 10 -1.4 10 2 10 C1.62095792 6.70924004 1.62095792 6.70924004 0 4 C-4.49885769 3.53277305 -4.49885769 3.53277305 -8 6 Z " fill="#8597B1" transform="translate(13,9)"/>
<path d="M0 0 C3.76389108 1.68508931 5.45157416 3.77199394 8 7 C8.66 7 9.32 7 10 7 C11.57840572 5.44294806 11.57840572 5.44294806 13.125 3.5 C13.66382813 2.8503125 14.20265625 2.200625 14.7578125 1.53125 C15.16773438 1.0259375 15.57765625 0.520625 16 0 C16.66 0.33 17.32 0.66 18 1 C15.69 3.97 13.38 6.94 11 10 C11.8971875 11.3303125 11.8971875 11.3303125 12.8125 12.6875 C14.61840247 15.42215231 16.33895911 18.17623048 18 21 C14.2047869 19.50902342 12.38957269 17.24299151 10 14 C6.85650159 15.0478328 6.26748815 15.57913668 4.3125 18.0625 C3.1678125 19.5165625 3.1678125 19.5165625 2 21 C1.34 20.67 0.68 20.34 0 20 C0.44472656 19.46890625 0.88945312 18.9378125 1.34765625 18.390625 C1.91355469 17.68421875 2.47945312 16.9778125 3.0625 16.25 C3.63097656 15.55390625 4.19945312 14.8578125 4.78515625 14.140625 C6.19697683 12.11818983 6.19697683 12.11818983 5.84375 10 C4.89542185 7.75211105 3.76715637 5.79562518 2.4375 3.75 C1.98246094 3.04359375 1.52742188 2.3371875 1.05859375 1.609375 C0.70925781 1.07828125 0.35992188 0.5471875 0 0 Z " fill="#A7B8CC" transform="translate(20,10)"/>
<path d="M0 0 C0.66 0.33 1.32 0.66 2 1 C2 2.65 2 4.3 2 6 C-3.28 6 -8.56 6 -14 6 C-12.34922098 9.75170424 -12.34922098 9.75170424 -10 13 C-5.92720311 12.61577388 -2.53425882 12.12055529 1 10 C-0.36983503 13.16115776 -0.9890638 13.9927092 -4 16 C-7.6301624 16.47349944 -9.53796213 16.23615269 -12.8125 14.5625 C-15.89122742 10.95599074 -15.89137886 7.62133565 -16 3 C-15.34 2.67 -14.68 2.34 -14 2 C-14 2.66 -14 3.32 -14 4 C-9.38 4 -4.76 4 0 4 C0 2.68 0 1.36 0 0 Z " fill="#AFC0D3" transform="translate(17,16)"/>
<path d="M0 0 C0.515625 0.680625 1.03125 1.36125 1.5625 2.0625 C3.93831374 4.38172945 3.93831374 4.38172945 7.5 3.875 C10.3312586 3.16718535 12.51928835 2.48842699 15 1 C13.63016497 4.16115776 13.0109362 4.9927092 10 7 C6.00453212 7.52114798 4.47680735 7.33169207 1.125 5 C0.42375 4.34 -0.2775 3.68 -1 3 C-0.67 2.01 -0.34 1.02 0 0 Z " fill="#A6B7CA" transform="translate(3,25)"/>
<path d="M0 0 C0.99 0 1.98 0 3 0 C1.68775452 3.93673644 0.08089673 6.22719294 -3 9 C-2.44271087 5.65626525 -1.64826111 2.96687001 0 0 Z " fill="#63749A" transform="translate(37,9)"/>
</svg>
